<svg width="74" height="74" viewBox="0 0 74 74" fill="none" xmlns="http://www.w3.org/2000/svg">
<path d="M0 37C0 16.5655 16.5655 0 37 0C57.4345 0 74 16.5655 74 37C74 57.4345 57.4345 74 37 74C16.5655 74 0 57.4345 0 37Z" fill="white"/>
<mask id="mask0_5544_276" style="mask-type:luminance" maskUnits="userSpaceOnUse" x="0" y="0" width="74" height="74">
<path fill-rule="evenodd" clip-rule="evenodd" d="M0 37C0 16.5655 16.5655 0 37 0C57.4345 0 74 16.5655 74 37C74 57.4345 57.4345 74 37 74C16.5655 74 0 57.4345 0 37Z" fill="white"/>
</mask>
<g mask="url(#mask0_5544_276)">
<path fill-rule="evenodd" clip-rule="evenodd" d="M36.9987 17.2667C31.6422 17.2667 30.9695 17.2902 28.865 17.3859C26.7642 17.4821 25.3302 17.8147 24.0755 18.3027C22.7776 18.8068 21.6766 19.481 20.5798 20.5783C19.4821 21.6751 18.8079 22.7761 18.3022 24.0736C17.813 25.3287 17.48 26.7631 17.3854 28.8631C17.2913 30.968 17.2666 31.641 17.2666 37.0003C17.2666 42.3596 17.2904 43.0301 17.3858 45.135C17.4824 47.2358 17.815 48.6698 18.3026 49.9245C18.8071 51.2224 19.4813 52.3234 20.5785 53.4202C21.675 54.5179 22.776 55.1938 24.073 55.6978C25.3286 56.1858 26.763 56.5184 28.8633 56.6146C30.9683 56.7104 31.6404 56.7338 36.9993 56.7338C42.359 56.7338 43.0296 56.7104 45.1345 56.6146C47.2353 56.5184 48.6709 56.1858 49.9264 55.6978C51.2239 55.1938 52.3232 54.5179 53.4197 53.4202C54.5174 52.3234 55.1916 51.2224 55.6973 49.9249C56.1824 48.6698 56.5154 47.2354 56.614 45.1354C56.7086 43.0305 56.7333 42.3596 56.7333 37.0003C56.7333 31.641 56.7086 30.9684 56.614 28.8635C56.5154 26.7627 56.1824 25.3287 55.6973 24.074C55.1916 22.7761 54.5174 21.6751 53.4197 20.5783C52.322 19.4806 51.2243 18.8064 49.9252 18.3027C48.6672 17.8147 47.2324 17.4821 45.1316 17.3859C43.0271 17.2902 42.3568 17.2667 36.9987 17.2667ZM36.344 20.8227H36.3441L37.0018 20.8229C42.2706 20.8229 42.8951 20.8418 44.9758 20.9363C46.8998 21.0243 47.944 21.3458 48.6396 21.6159C49.5605 21.9736 50.2171 22.4011 50.9074 23.0918C51.598 23.7825 52.0256 24.4403 52.3841 25.3612C52.6542 26.056 52.9761 27.1002 53.0637 29.0242C53.1582 31.1045 53.1788 31.7294 53.1788 36.9957C53.1788 42.2621 53.1582 42.887 53.0637 44.9673C52.9757 46.8913 52.6542 47.9355 52.3841 48.6303C52.0264 49.5512 51.598 50.2069 50.9074 50.8972C50.2167 51.5879 49.561 52.0154 48.6396 52.3731C47.9449 52.6444 46.8998 52.9651 44.9758 53.0531C42.8955 53.1476 42.2706 53.1682 37.0018 53.1682C31.7325 53.1682 31.108 53.1476 29.0278 53.0531C27.1038 52.9643 26.0595 52.6428 25.3635 52.3727C24.4426 52.015 23.7848 51.5875 23.0942 50.8968C22.4035 50.2061 21.9759 49.55 21.6174 48.6287C21.3473 47.9339 21.0254 46.8896 20.9379 44.9656C20.8433 42.8854 20.8244 42.2605 20.8244 36.9908C20.8244 31.7211 20.8433 31.0995 20.9379 29.0193C21.0258 27.0953 21.3473 26.051 21.6174 25.3554C21.9751 24.4345 22.4035 23.7767 23.0942 23.0861C23.7848 22.3954 24.4426 21.9678 25.3635 21.6093C26.0591 21.338 27.1038 21.0173 29.0278 20.9289C30.8482 20.8467 31.5537 20.822 35.2315 20.8179V20.8229C35.5752 20.8223 35.945 20.8225 36.344 20.8227H36.344H36.344ZM45.1674 26.4667C45.1674 25.1589 46.228 24.0995 47.5354 24.0995V24.0986C48.8427 24.0986 49.9034 25.1593 49.9034 26.4667C49.9034 27.774 48.8427 28.8347 47.5354 28.8347C46.228 28.8347 45.1674 27.774 45.1674 26.4667ZM37.0014 26.8663C31.405 26.8665 26.8678 31.4039 26.8678 37.0003C26.8678 42.5968 31.4053 47.1322 37.0018 47.1322C42.5983 47.1322 47.1341 42.5968 47.1341 37.0003C47.1341 31.4037 42.5979 26.8663 37.0014 26.8663ZM43.5796 37.0003C43.5796 33.3672 40.6344 30.4224 37.0018 30.4224C33.3688 30.4224 30.4239 33.3672 30.4239 37.0003C30.4239 40.6329 33.3688 43.5781 37.0018 43.5781C40.6344 43.5781 43.5796 40.6329 43.5796 37.0003Z" fill="black"/>
</g>
</svg>
