<svg width="74" height="74" viewBox="0 0 74 74" fill="none" xmlns="http://www.w3.org/2000/svg">
<path d="M0 37C0 16.5655 16.5655 0 37 0C57.4345 0 74 16.5655 74 37C74 57.4345 57.4345 74 37 74C16.5655 74 0 57.4345 0 37Z" fill="#005FF9"/>
<path fill-rule="evenodd" clip-rule="evenodd" d="M15.417 36.9387C15.417 25.0714 25.099 15.4166 37 15.4166C48.901 15.4166 58.5832 25.0714 58.5832 36.9387C58.5832 38.6199 58.4429 39.9809 58.1285 41.347L58.1239 41.3696C58.1231 41.3737 57.9671 42.0034 57.881 42.2782C57.3476 43.9793 56.3818 45.3963 55.0879 46.3756C53.8332 47.3256 52.2774 47.8488 50.7074 47.8488C50.5134 47.8488 50.318 47.841 50.1267 47.8256C47.8971 47.6472 45.9367 46.4772 44.7346 44.6116C42.667 46.6847 39.9239 47.8252 37 47.8252C30.9803 47.8252 26.0829 42.9416 26.0829 36.9387C26.0829 30.936 30.9803 26.0525 37 26.0525C43.0197 26.0525 47.9171 30.936 47.9171 36.9387V40.448C47.9262 42.4956 49.3041 43.3326 50.4813 43.4273C51.6525 43.5175 53.2112 42.8372 53.7542 40.6168C54.022 39.3991 54.1581 38.1613 54.1581 36.9387C54.1581 27.5044 46.461 19.8291 37 19.8291C27.539 19.8291 19.842 27.5044 19.842 36.9387C19.842 46.3731 27.539 54.0485 37 54.0485C40.2933 54.0485 43.4963 53.1106 46.2626 51.336L46.3121 51.3042L49.2197 54.6751L49.1573 54.7177C45.5641 57.1666 41.3601 58.4611 37 58.4611C25.099 58.4611 15.417 48.8062 15.417 36.9387ZM37 43.4126C40.5797 43.4126 43.4921 40.5085 43.4921 36.9387C43.4921 33.3691 40.5797 30.4651 37 30.4651C33.4202 30.4651 30.5079 33.3691 30.5079 36.9387C30.5079 40.5085 33.4202 43.4126 37 43.4126Z" fill="#FF9E00"/>
</svg>
