<svg width="74" height="74" viewBox="0 0 74 74" fill="none" xmlns="http://www.w3.org/2000/svg">
<path d="M37 74C57.4345 74 74 57.4345 74 37C74 16.5655 57.4345 0 37 0C16.5655 0 0 16.5655 0 37C0 57.4345 16.5655 74 37 74Z" fill="#25D366"/>
<path fill-rule="evenodd" clip-rule="evenodd" d="M38.2194 57.5851H38.2103C34.5281 57.5838 30.91 56.66 27.6964 54.9071L16.0332 57.9666L19.1545 46.5658C17.2291 43.2291 16.216 39.4443 16.2177 35.5666C16.2225 23.4359 26.0923 13.5667 38.2192 13.5667C44.1049 13.5692 49.6289 15.8604 53.7828 20.0192C57.9366 24.1777 60.223 29.7053 60.2207 35.584C60.2158 47.7119 50.3499 57.5802 38.2194 57.5851ZM28.2368 50.9241L28.9046 51.3205C31.7122 52.9866 34.9306 53.8682 38.212 53.8694H38.2194C48.2985 53.8694 56.5018 45.6659 56.5059 35.5827C56.5078 30.6964 54.6075 26.1021 51.1549 22.6455C47.7024 19.1889 43.111 17.2844 38.2266 17.2827C28.1398 17.2827 19.9364 25.4854 19.9324 35.5679C19.9309 39.0232 20.8977 42.3883 22.7283 45.2998L23.1631 45.9916L21.3157 52.7397L28.2368 50.9241ZM48.5507 40.3208C48.9341 40.5061 49.193 40.6313 49.3036 40.8158C49.4409 41.045 49.4409 42.1457 48.9831 43.43C48.5248 44.7141 46.3286 45.8861 45.2723 46.0439C44.3252 46.1855 43.1267 46.2446 41.8098 45.8261C41.0113 45.5727 39.9874 45.2345 38.6758 44.6681C33.5221 42.4427 30.0393 37.4477 29.381 36.5036C29.3349 36.4375 29.3027 36.3912 29.2847 36.3672L29.2802 36.3613C28.9893 35.9731 27.04 33.3722 27.04 30.6803C27.04 28.1481 28.2838 26.8208 28.8564 26.2099C28.8956 26.168 28.9317 26.1295 28.964 26.0942C29.4679 25.5439 30.0635 25.4063 30.43 25.4063C30.7964 25.4063 31.1633 25.4097 31.4836 25.4257C31.5231 25.4277 31.5642 25.4275 31.6067 25.4272C31.9271 25.4254 32.3265 25.423 32.7205 26.3694C32.8721 26.7337 33.0939 27.2737 33.3278 27.8432C33.8008 28.9948 34.3235 30.2672 34.4154 30.4513C34.5529 30.7265 34.6445 31.0474 34.4613 31.4145C34.4337 31.4695 34.4083 31.5214 34.384 31.5711C34.2464 31.852 34.1451 32.0587 33.9115 32.3315C33.8197 32.4387 33.7247 32.5543 33.6298 32.6699C33.4407 32.9003 33.2516 33.1306 33.0869 33.2946C32.8117 33.5688 32.5252 33.8662 32.8459 34.4165C33.1666 34.9669 34.2698 36.7671 35.9041 38.2248C37.6609 39.7918 39.1877 40.4541 39.9617 40.7898C40.1128 40.8553 40.2352 40.9084 40.3251 40.9534C40.8746 41.2287 41.1953 41.1826 41.516 40.8158C41.8367 40.4489 42.8902 39.2105 43.2566 38.6602C43.6231 38.1101 43.9897 38.2017 44.4935 38.3851C44.9975 38.5687 47.7003 39.8985 48.25 40.1737C48.3573 40.2274 48.4577 40.2759 48.5507 40.3208Z" fill="#FDFDFD"/>
</svg>
